<?xml version="1.0" encoding="UTF-8"?>
<svg id="Layer_1" data-name="Layer 1" xmlns="http://www.w3.org/2000/svg" viewBox="0 0 375 375">
  <defs>
    <style>
      .cls-1 {
        fill: #e7a92c;
      }
    </style>
  </defs>
  <g>
    <path class="cls-1" d="M126.43,181.9c0-1.72-.47-3.59-1.41-5.6-.94-2.01-2.23-3.98-3.87-5.9-1.64-1.93-3.51-3.65-5.6-5.17-2.09-1.52-4.26-2.62-6.52-3.32-2.26-.7-4.51-.86-6.77-.49-2.26.37-4.29,1.5-6.09,3.38-1.72,1.72-2.54,3.75-2.46,6.09.08,2.34,1.06,4.45,2.95,6.33,1.39,1.4,3.46,2.79,6.21,4.18,2.75,1.4,6.37,2.67,10.89,3.81,3.36.9,6.19,1.97,8.49,3.2,2.29,1.23,4.18,2.54,5.66,3.94,2.38,2.38,3.77,5.04,4.18,8,.41,2.95-.21,5.9-1.84,8.86-.82,1.4-1.78,2.69-2.89,3.87-1.11,1.19-2.32,2.15-3.63,2.89-1.31.9-2.77,1.66-4.37,2.28-1.6.62-3.26,1.11-4.98,1.48-1.72.37-3.44.61-5.17.74-1.72.12-3.36.14-4.92.06-2.95-.25-6.05-.88-9.29-1.91-3.24-1.02-6.62-2.6-10.15-4.74l-.98-.62,2.95-13.65.98.25c-.17.74,0,1.68.49,2.83.49,1.15,1.11,2.34,1.85,3.57.74,1.23,1.52,2.36,2.34,3.38.82,1.03,1.52,1.78,2.09,2.28,1.64,1.64,3.44,2.93,5.41,3.87,1.97.94,4.02,1.62,6.15,2.03,2.05.41,4.08.58,6.09.49,2.01-.08,3.92-.37,5.72-.86.98-.25,1.89-.55,2.71-.92.82-.37,1.68-.8,2.58-1.29.82-.57,1.56-1.19,2.21-1.84.57-.66,1.09-1.35,1.54-2.09.45-.74.76-1.52.92-2.34.16-1.31.08-2.5-.25-3.57-.58-1.56-1.54-2.89-2.89-4-1.35-1.11-2.93-2.05-4.74-2.83-1.8-.78-3.75-1.46-5.84-2.03-2.09-.57-4.16-1.19-6.21-1.85-3.94-1.15-7.4-2.79-10.39-4.92-2.99-2.13-5.17-4.57-6.52-7.32-1.35-2.75-1.76-5.68-1.23-8.79.53-3.12,2.4-6.27,5.6-9.47,2.13-2.21,4.94-3.59,8.43-4.12,3.48-.53,7.01-.53,10.58,0,3.57.53,6.81,1.52,9.72,2.95,2.91,1.44,4.9,3.06,5.97,4.86l-3.08,14.02h-.62Z"/>
    <path class="cls-1" d="M141.68,222.98c-.9.66-1.35,1.39-1.35,2.21s.16,1.56.49,2.21c1.07,2.21,2.38,4.2,3.94,5.96,1.56,1.76,3.2,2.91,4.92,3.44,1.72.53,3.4.2,5.04-.98,1.64-1.19,3.16-3.67,4.55-7.44l3.44-9.35h-.37l-23.12-53.38c-.74-1.64-1.44-2.85-2.09-3.63-.66-.78-1.52-1.17-2.58-1.17v-1.11h15.62v1.11c-2.3,0-2.79,1.48-1.48,4.43l18.33,42.43,15.38-40.84c.49-1.39.63-2.48.43-3.26-.21-.78-.51-1.37-.92-1.78-.49-.49-1.15-.82-1.97-.98v-1.11h10.46v1.11c-1.4,0-2.77.58-4.12,1.72-1.35,1.15-2.36,2.67-3.01,4.55l-23.12,61.5c-1.64,4.59-3.59,8.08-5.84,10.46-2.26,2.38-4.7,3.69-7.32,3.94-2.62.25-5.39-.55-8.3-2.4-2.91-1.85-5.8-4.66-8.67-8.43l-.74-.86,11.68-9.22.74.86Z"/>
    <path class="cls-1" d="M210.93,219.05h-14.27v-1.11c.16,0,.41-.1.74-.31.33-.2.63-.66.92-1.35.29-.7.55-1.66.8-2.89.25-1.23.37-2.87.37-4.92v-67.65c-.33-2.13-.76-3.52-1.29-4.18-.53-.66-.96-.98-1.29-.98l-.37-1.11,11.56-4.31v78.23c0,2.05.1,3.69.31,4.92.2,1.23.47,2.2.8,2.89.33.7.66,1.15.98,1.35.33.21.57.31.74.31v1.11Z"/>
    <path class="cls-1" d="M273.42,219.05h-11.44v-35.42c0-2.21-.1-4.67-.31-7.38-.21-2.71-.72-5.25-1.54-7.63-.82-2.38-2.07-4.37-3.75-5.96-1.68-1.6-4-2.4-6.95-2.4s-5.52.43-7.69,1.29c-2.17.86-3.92,1.87-5.23,3.01-1.31,1.15-2.17,2.3-2.58,3.44-.41,1.15-.33,2.05.25,2.71.33.41.88.72,1.66.92.78.21,1.66.39,2.64.55.98.17,2.03.33,3.14.49,1.11.17,2.15.45,3.14.86,2.71,1.07,4.86,2.77,6.46,5.1,1.6,2.34,2.73,4.94,3.38,7.81.66,2.87.9,5.82.74,8.86-.17,3.03-.74,5.7-1.72,8-1.89,4.76-4.67,8.69-8.36,11.81-3.69,3.12-7.71,4.59-12.05,4.43-4.1-.17-7.42-1.29-9.96-3.38-2.54-2.09-4.29-4.67-5.23-7.75-.94-3.08-1.04-6.4-.31-9.96.74-3.57,2.32-6.89,4.74-9.96,2.42-3.08,5.74-5.68,9.96-7.81,4.22-2.13,9.37-3.32,15.44-3.57.16-.08.45-.12.86-.12-1.23-1.06-2.67-1.93-4.3-2.58-1.48-.57-3.08-.94-4.8-1.11-1.72-.16-3.34-.2-4.86-.12-1.52.08-2.87.21-4.06.37-1.19.17-1.95.29-2.28.37-.25-1.23.1-2.68,1.05-4.37.94-1.68,2.34-3.28,4.18-4.8,1.85-1.52,4.1-2.79,6.77-3.81,2.66-1.02,5.68-1.54,9.04-1.54,3.94,0,7.26.62,9.97,1.84,2.71,1.23,4.9,2.91,6.57,5.04,1.66,2.13,2.85,4.7,3.56,7.69.71,2.99,1.06,6.21,1.06,9.66v24.85c0,2.05.1,3.69.31,4.92.2,1.23.47,2.2.8,2.89.33.7.66,1.15.98,1.35.33.21.57.31.74.31v1.11ZM249.55,177.97c-3.28,0-6.38.41-9.29,1.23-2.91.82-5.45,2.09-7.63,3.81-2.17,1.72-3.9,3.9-5.17,6.52-1.27,2.63-1.91,5.7-1.91,9.23,0,1.72.18,3.44.55,5.17.37,1.72.98,3.32,1.85,4.8.86,1.48,1.95,2.75,3.26,3.81,1.31,1.07,2.91,1.76,4.8,2.09,1.97.41,3.81.33,5.54-.25,1.72-.57,3.32-1.42,4.8-2.52,1.48-1.11,2.77-2.44,3.88-4,1.11-1.56,1.99-3.16,2.64-4.8.74-1.97,1.25-4.08,1.54-6.33.29-2.25.31-4.51.06-6.76-.25-2.25-.78-4.41-1.6-6.46-.82-2.05-1.93-3.89-3.32-5.54Z"/>
    <path class="cls-1" d="M285.59,208.35c1.56,0,2.87.53,3.94,1.6,1.06,1.07,1.6,2.34,1.6,3.81s-.53,2.73-1.6,3.75c-1.07,1.03-2.38,1.54-3.94,1.54-1.48,0-2.77-.51-3.87-1.54-1.11-1.02-1.66-2.28-1.66-3.75s.55-2.75,1.66-3.81c1.11-1.07,2.4-1.6,3.87-1.6Z"/>
  </g>
  <g>
    <path class="cls-1" d="M196.98,241.83c-.05-.05-.07-.12-.07-.2v-8.18c0-.24,0-.42-.02-.53-.01-.11-.07-.21-.17-.29-.1-.08-.28-.13-.52-.13-.11,0-.2-.02-.25-.05-.06-.03-.08-.11-.08-.23,0-.06.02-.11.06-.16.04-.05.09-.08.17-.09.59-.08,1.09-.21,1.51-.36.13-.05.24-.07.32-.08h.04c.15,0,.22.09.22.27v4.23h.04c.27-.27.58-.47.92-.61.34-.14.68-.2,1.01-.2.55,0,1.05.14,1.5.42s.8.67,1.06,1.17c.26.5.39,1.07.39,1.7s-.15,1.2-.44,1.71c-.29.52-.69.93-1.18,1.22-.5.3-1.02.45-1.58.45-.83,0-1.55-.23-2.16-.69h-.07c-.04.07-.08.18-.13.31s-.1.23-.15.3c-.06.07-.13.11-.21.11s-.15-.03-.2-.08ZM201.14,240.62c.35-.52.52-1.21.52-2.08,0-.73-.17-1.35-.5-1.87-.34-.52-.83-.78-1.5-.78-.59,0-1.08.21-1.48.64v3.7c.03.15.11.31.25.5.13.18.32.34.55.47.23.13.49.2.79.2.57,0,1.03-.26,1.38-.78Z"/>
    <path class="cls-1" d="M205.73,241.43c-.49-.3-.86-.7-1.11-1.22-.25-.51-.38-1.08-.38-1.71,0-.55.13-1.08.38-1.59s.62-.92,1.1-1.24c.48-.32,1.02-.48,1.64-.48.83,0,1.47.21,1.92.64.45.42.7,1,.77,1.71,0,.31-.08.52-.25.63-.17.11-.41.17-.73.17h-3.4c0,.87.18,1.56.54,2.07s.92.76,1.67.76c.4,0,.74-.09,1.02-.26.28-.17.55-.46.8-.88.05-.05.09-.07.14-.07.07,0,.12.02.17.06.09.06.14.14.14.25,0,.06,0,.1-.03.13-.29.47-.66.83-1.1,1.08-.44.26-.95.38-1.51.38-.7,0-1.29-.15-1.78-.45ZM207.95,237.82c.48,0,.73-.2.76-.59,0-.43-.12-.79-.35-1.09-.23-.3-.57-.45-.99-.45-.48,0-.87.19-1.18.57-.31.38-.48.9-.52,1.56h2.28Z"/>
    <path class="cls-1" d="M214.09,244.37c-.31-.26-.47-.56-.47-.92,0-.42.12-.69.35-.8.23-.12.42-.18.55-.18.16,0,.29.03.39.1s.15.13.15.18c0,.02-.04.07-.11.14s-.11.21-.11.39.06.35.17.49c.12.14.28.21.5.21.59,0,1.16-.6,1.72-1.81.04-.13.06-.23.06-.29,0-.09-.02-.21-.07-.35-.19-.42-.5-1.2-.94-2.34-.38-1.02-.7-1.79-.94-2.32-.16-.36-.31-.61-.45-.75-.14-.13-.35-.22-.62-.26-.03,0-.08-.02-.15-.03-.07,0-.12-.03-.14-.07-.02-.04-.03-.1-.03-.2,0-.11.03-.18.09-.21.06-.03.13-.04.22-.05s.15,0,.17,0c.57-.03,1.02.05,1.34.25.33.19.6.53.81,1,.21.48.39.93.55,1.36.37,1.01.68,1.75.91,2.21h.04l1.37-3.67c.05-.16.07-.27.07-.34,0-.1-.05-.17-.14-.21-.09-.04-.25-.06-.46-.06h-.08c-.08,0-.13-.01-.16-.04-.03-.03-.05-.1-.06-.21,0-.07.02-.13.05-.19.03-.06.08-.09.15-.09.53.03.99.04,1.36.04.15,0,.44,0,.87-.03h.29c.07-.01.12.02.15.08.04.06.06.12.06.19,0,.11-.03.18-.07.21-.04.03-.09.04-.17.04-.35,0-.61.06-.8.17-.19.11-.35.33-.48.66-.21.53-.56,1.39-1.04,2.56-.48,1.18-.83,2.04-1.06,2.6-.34.8-.73,1.49-1.18,2.06s-.99.85-1.61.85c-.4,0-.76-.13-1.07-.38Z"/>
    <path class="cls-1" d="M223.41,241.42c-.49-.3-.88-.7-1.15-1.2-.28-.5-.41-1.03-.41-1.59,0-.7.16-1.31.49-1.83.33-.52.74-.91,1.25-1.19.5-.28,1.01-.41,1.53-.41.63,0,1.2.15,1.69.46.49.3.88.7,1.15,1.2.28.5.41,1.03.41,1.59,0,.7-.17,1.31-.5,1.83-.33.52-.75.91-1.25,1.19s-1.01.41-1.51.41c-.63,0-1.2-.15-1.69-.46ZM226.49,240.55c.29-.54.44-1.24.44-2.1,0-.8-.15-1.46-.46-1.97s-.76-.76-1.38-.76-1.11.27-1.4.8c-.29.53-.43,1.23-.43,2.09,0,.8.15,1.46.45,1.98s.76.78,1.39.78,1.1-.27,1.39-.81Z"/>
    <path class="cls-1" d="M230.78,241.3c-.37-.38-.56-.89-.56-1.51v-2.59c0-.24,0-.42-.02-.53-.01-.11-.07-.21-.17-.29s-.28-.13-.52-.13c-.11,0-.2-.02-.25-.05-.06-.03-.08-.11-.08-.23,0-.06.02-.11.06-.16.04-.05.09-.08.17-.09.59-.08,1.09-.21,1.51-.36.13-.05.24-.07.32-.08h.04c.15,0,.22.09.22.27v4.24c0,.43.14.76.41.99.27.23.58.34.94.34.44,0,.81-.11,1.12-.32.31-.21.51-.43.62-.64v-2.94c0-.24,0-.42-.02-.53s-.07-.21-.17-.29c-.1-.08-.28-.13-.52-.13-.11,0-.2-.02-.25-.05-.06-.03-.08-.11-.08-.23,0-.06.02-.11.06-.16.04-.05.09-.08.17-.09.59-.08,1.09-.21,1.51-.36.13-.05.24-.07.32-.08h.04c.15,0,.22.09.22.27v4.84c0,.55.37.83,1.11.83.16,0,.24.09.24.27,0,.13-.08.21-.24.24l-2.25.15c-.07,0-.1-.02-.11-.06,0-.04-.01-.11-.01-.22v-.78h-.03c-.27.25-.49.45-.66.58-.17.14-.38.25-.65.35-.27.1-.58.15-.94.15-.63,0-1.14-.19-1.51-.57Z"/>
    <path class="cls-1" d="M238.19,241.63c-.17-.16-.25-.38-.25-.64,0-.24.08-.45.25-.62s.38-.25.64-.25.46.08.64.25c.17.17.26.37.26.62,0,.26-.09.47-.26.64-.17.16-.39.25-.65.25s-.46-.08-.63-.25Z"/>
    <path class="cls-1" d="M244.67,241.83c-.05-.05-.07-.12-.07-.2v-8.18c0-.24,0-.42-.02-.53-.01-.11-.07-.21-.17-.29-.1-.08-.28-.13-.52-.13-.11,0-.2-.02-.25-.05-.06-.03-.08-.11-.08-.23,0-.06.02-.11.06-.16.04-.05.09-.08.17-.09.59-.08,1.09-.21,1.51-.36.13-.05.24-.07.32-.08h.04c.15,0,.22.09.22.27v4.23h.04c.27-.27.58-.47.92-.61.34-.14.68-.2,1.01-.2.55,0,1.05.14,1.5.42s.8.67,1.06,1.17c.26.5.39,1.07.39,1.7s-.15,1.2-.44,1.71c-.29.52-.69.93-1.18,1.22-.5.3-1.02.45-1.58.45-.83,0-1.55-.23-2.16-.69h-.07c-.04.07-.08.18-.13.31s-.1.23-.15.3c-.06.07-.13.11-.21.11s-.15-.03-.2-.08ZM248.84,240.62c.35-.52.52-1.21.52-2.08,0-.73-.17-1.35-.5-1.87-.34-.52-.83-.78-1.5-.78-.59,0-1.08.21-1.48.64v3.7c.03.15.11.31.25.5.13.18.32.34.55.47.23.13.49.2.79.2.57,0,1.03-.26,1.38-.78Z"/>
    <path class="cls-1" d="M253.43,241.43c-.49-.3-.86-.7-1.11-1.22-.25-.51-.38-1.08-.38-1.71,0-.55.13-1.08.38-1.59s.62-.92,1.1-1.24c.48-.32,1.02-.48,1.64-.48.83,0,1.47.21,1.92.64.45.42.7,1,.77,1.71,0,.31-.08.52-.25.63-.17.11-.41.17-.73.17h-3.4c0,.87.18,1.56.54,2.07s.92.76,1.67.76c.4,0,.74-.09,1.02-.26.28-.17.55-.46.8-.88.05-.05.09-.07.14-.07.07,0,.12.02.17.06.09.06.14.14.14.25,0,.06,0,.1-.03.13-.29.47-.66.83-1.1,1.08-.44.26-.95.38-1.51.38-.7,0-1.29-.15-1.78-.45ZM255.65,237.82c.48,0,.73-.2.76-.59,0-.43-.12-.79-.35-1.09-.23-.3-.57-.45-.99-.45-.48,0-.87.19-1.18.57-.31.38-.48.9-.52,1.56h2.28Z"/>
    <path class="cls-1" d="M262.75,241.48c-.47-.26-.7-.63-.7-1.11,0-.27.08-.49.25-.66.16-.17.38-.25.64-.25.15,0,.28.04.4.13.12.08.17.15.17.2,0,0-.05.07-.16.18-.11.11-.16.27-.16.48,0,.28.13.5.38.67s.63.25,1.11.25c.44,0,.78-.1,1.03-.29.25-.19.37-.46.37-.81,0-.23-.07-.42-.21-.57-.14-.15-.31-.27-.52-.35s-.5-.18-.88-.29c-.46-.13-.83-.26-1.12-.39s-.54-.33-.74-.59c-.21-.26-.31-.6-.31-1.02,0-.39.12-.73.36-1.01.24-.28.56-.49.94-.63.39-.14.8-.21,1.23-.21.55,0,1.03.12,1.43.35s.61.56.61.98c0,.25-.08.47-.23.64-.15.18-.36.27-.61.27-.15,0-.28-.04-.4-.13-.12-.08-.17-.15-.17-.2,0,0,.04-.05.11-.11.08-.07.14-.14.2-.23s.09-.19.09-.32c-.02-.25-.14-.45-.38-.59s-.51-.21-.83-.21c-.36,0-.67.08-.93.25-.27.16-.4.39-.4.68,0,.26.06.47.17.62.11.15.28.28.5.37.22.09.58.22,1.06.38.5.16.88.31,1.16.44.28.13.5.32.67.55s.25.53.25.9-.11.73-.34,1.04c-.22.31-.53.56-.92.73-.39.17-.83.26-1.32.26-.75,0-1.35-.13-1.82-.39Z"/>
    <path class="cls-1" d="M267.99,244.37c-.31-.26-.47-.56-.47-.92,0-.42.12-.69.35-.8.23-.12.42-.18.55-.18.16,0,.29.03.39.1s.15.13.15.18c0,.02-.04.07-.11.14s-.11.21-.11.39.06.35.17.49c.12.14.28.21.5.21.59,0,1.16-.6,1.72-1.81.04-.13.06-.23.06-.29,0-.09-.02-.21-.07-.35-.19-.42-.5-1.2-.94-2.34-.38-1.02-.7-1.79-.94-2.32-.16-.36-.31-.61-.45-.75-.14-.13-.35-.22-.62-.26-.03,0-.08-.02-.15-.03-.07,0-.12-.03-.14-.07-.02-.04-.03-.1-.03-.2,0-.11.03-.18.09-.21.06-.03.13-.04.22-.05s.15,0,.17,0c.57-.03,1.02.05,1.34.25.33.19.6.53.81,1,.21.48.39.93.55,1.36.37,1.01.68,1.75.91,2.21h.04l1.37-3.67c.05-.16.07-.27.07-.34,0-.1-.05-.17-.14-.21-.09-.04-.25-.06-.46-.06h-.08c-.08,0-.13-.01-.16-.04-.03-.03-.05-.1-.06-.21,0-.07.02-.13.05-.19.03-.06.08-.09.15-.09.53.03.99.04,1.36.04.15,0,.44,0,.87-.03h.29c.07-.01.12.02.15.08.04.06.06.12.06.19,0,.11-.03.18-.07.21-.04.03-.09.04-.17.04-.35,0-.61.06-.8.17-.19.11-.35.33-.48.66-.21.53-.56,1.39-1.04,2.56-.48,1.18-.83,2.04-1.06,2.6-.34.8-.73,1.49-1.18,2.06s-.99.85-1.61.85c-.4,0-.76-.13-1.07-.38Z"/>
    <path class="cls-1" d="M275.7,241.67c-.04-.06-.06-.12-.06-.2,0-.12.04-.19.08-.22s.12-.04.24-.04c.24,0,.42-.04.52-.13s.16-.18.18-.29.03-.29.03-.53v-6.83c0-.24,0-.42-.02-.53-.01-.11-.07-.21-.17-.29s-.28-.13-.52-.13c-.11,0-.2-.02-.25-.05-.06-.03-.08-.11-.08-.23,0-.06.02-.11.06-.16.04-.05.09-.08.17-.09.59-.08,1.09-.21,1.51-.36.13-.05.24-.07.32-.08h.04c.15,0,.22.09.22.27v8.5c0,.24,0,.42.03.53s.08.21.18.29c.1.08.27.13.52.13h.08c.07,0,.13.01.17.04.04.03.06.1.07.21,0,.08-.02.14-.06.2s-.09.08-.17.08c-.54-.03-1.03-.04-1.47-.04s-.91.01-1.46.04c-.07,0-.12-.03-.16-.08Z"/>
    <path class="cls-1" d="M280.32,241.4c-.35-.32-.52-.71-.52-1.19,0-.59.2-1.03.59-1.32.39-.29.86-.49,1.4-.57.54-.09,1.24-.16,2.1-.2v-1.11c0-.46-.12-.8-.34-1.04s-.59-.36-1.1-.36c-.29,0-.54.09-.76.27s-.32.42-.32.71c0,.15.04.27.11.37.07.1.14.18.22.25s.12.1.12.11c0,.06-.06.13-.17.22-.12.09-.26.13-.43.13-.28,0-.5-.1-.67-.31-.16-.21-.24-.45-.24-.73,0-.49.22-.84.65-1.08.43-.23.96-.35,1.58-.35.76,0,1.39.14,1.87.43.48.29.72.83.72,1.61v3.26c0,.2.07.38.18.56.11.18.29.27.55.27.07,0,.13.01.16.04.03.03.05.09.05.18,0,.11-.09.19-.26.25-.17.05-.34.08-.51.08-.35,0-.67-.1-.94-.31-.27-.21-.42-.48-.46-.83-.2.36-.5.64-.9.84s-.84.29-1.31.29c-.56,0-1.01-.16-1.36-.48ZM283,240.88c.27-.16.49-.38.64-.65.16-.28.24-.58.24-.92v-.8c-.98.08-1.67.23-2.07.48-.4.24-.6.63-.6,1.18,0,.63.3.95.91.95.32,0,.61-.08.88-.24Z"/>
    <path class="cls-1" d="M287.25,241.63c-.17-.16-.25-.38-.25-.64,0-.24.08-.45.25-.62s.38-.25.64-.25.46.08.64.25c.17.17.26.37.26.62,0,.26-.09.47-.26.64-.17.16-.39.25-.65.25s-.46-.08-.63-.25Z"/>
  </g>
</svg>